# xmcd CD database file
#
# Track frame offsets:
#	150
#	20405
#	44453
#	65548
#	87135
#	109237
#	133931
#	154873
#	179211
#	202436
#	226415
#	245963
#	269180
#	293912
#	313383
#	337936
#
# Disc length: 4823 seconds
#
# Revision: 0
# Processed by: cddbd v1.5.2PL0 Copyright (c) Steve Scherf et al.
# Submitted via: CDex 1.70beta2
#
DISCID=0b12d510
DTITLE=Elio Reve y su Charangon - Grandes Exitos
DYEAR=2010
DGENRE=Salsa
TTITLE0=De que estamos hablando
TTITLE1=Mi amiga chichi
TTITLE2=Open de door
TTITLE3=Ya se cantar, ya se bailar
TTITLE4=1999
TTITLE5=El jonron
TTITLE6=Fresquecito
TTITLE7=Mi salsa
TTITLE8=La boda en bicicleta
TTITLE9=Rumba a Matanzas
TTITLE10=El domino
TTITLE11=Papa Elegua
TTITLE12=Rumberos latinoamericanos
TTITLE13=Nina relajate
TTITLE14=Agua pa Yemaya
TTITLE15=Uyu Yuy
EXTD=YEAR: 2010
EXTT0=
EXTT1=
EXTT2=
EXTT3=
EXTT4=
EXTT5=
EXTT6=
EXTT7=
EXTT8=
EXTT9=
EXTT10=
EXTT11=
EXTT12=
EXTT13=
EXTT14=
EXTT15=
PLAYORDER=
